# xmcd
#
# Track frame offsets:
#	150
#	15002
#	31485
#	46390
#	62639
#	79376
#	94720
#	108692
#	124139
#	140753
#	156508
#	172763
#	187424
#	201347
#
# Disc length: 2920 seconds
#
# Revision: 0
# Processed by: cddbd v1.5.2PL0 Copyright (c) Steve Scherf et al.
# Submitted via: EasyCDDAExtractor 12.0.1.1
#
DISCID=c60b660e
DTITLE=Katie Armiger - Fall Into Me
DYEAR=2013
DGENRE=Country
TTITLE0=He's Gonna Change
TTITLE1=Man I Thought You Were
TTITLE2=Playin' With Fire
TTITLE3=Better In A Black Dress
TTITLE4=Okay Alone
TTITLE5=Black And White
TTITLE6=I'm Free
TTITLE7=Marry Go Round
TTITLE8=Baby You're Everything
TTITLE9=Cardboard Boxes
TTITLE10=Stealing Hearts
TTITLE11=Not Too Late
TTITLE12=So Long
TTITLE13=Safe
EXTD=
EXTT0=
EXTT1=
EXTT2=
EXTT3=
EXTT4=
EXTT5=
EXTT6=
EXTT7=
EXTT8=
EXTT9=
EXTT10=
EXTT11=
EXTT12=
EXTT13=
PLAYORDER=
